<svg width="27" height="32" viewBox="0 0 27 32" fill="none" xmlns="http://www.w3.org/2000/svg">
<path d="M2.33471 4.79442C3.69317 4.79442 4.79442 3.69317 4.79442 2.33471C4.79442 0.976248 3.69317 -0.125 2.33471 -0.125C0.976249 -0.125 -0.125 0.976248 -0.125 2.33471C-0.125 3.69317 0.976249 4.79442 2.33471 4.79442Z" transform="translate(11.286 25.7689)" fill="#27AE60" stroke="#CBCBCB" stroke-width="0.25"/>
<path d="M5.169 18.7716L5.16899 18.7718H5.17589H5.17596H5.17603H5.17611H5.17618H5.17625H5.17632H5.17639H5.17646H5.17653H5.17661H5.17668H5.17675H5.17682H5.17689H5.17696H5.17703H5.1771H5.17717H5.17724H5.17731H5.17738H5.17745H5.17752H5.17759H5.17766H5.17772H5.17779H5.17786H5.17793H5.178H5.17807H5.17814H5.1782H5.17827H5.17834H5.17841H5.17847H5.17854H5.17861H5.17868H5.17874H5.17881H5.17888H5.17894H5.17901H5.17908H5.17914H5.17921H5.17928H5.17934H5.17941H5.17947H5.17954H5.17961H5.17967H5.17974H5.1798H5.17987H5.17993H5.18H5.18006H5.18013H5.18019H5.18026H5.18032H5.18038H5.18045H5.18051H5.18058H5.18064H5.1807H5.18077H5.18083H5.1809H5.18096H5.18102H5.18109H5.18115H5.18121H5.18127H5.18134H5.1814H5.18146H5.18152H5.18159H5.18165H5.18171H5.18177H5.18184H5.1819H5.18196H5.18202H5.18208H5.18214H5.18221H5.18227H5.18233H5.18239H5.18245H5.18251H5.18257H5.18263H5.18269H5.18276H5.18282H5.18288H5.18294H5.183H5.18306H5.18312H5.18318H5.18324H5.1833H5.18336H5.18342H5.18348H5.18354H5.1836H5.18366H5.18372H5.18378H5.18383H5.18389H5.18395H5.18401H5.18407H5.18413H5.18419H5.18425H5.18431H5.18436H5.18442H5.18448H5.18454H5.1846H5.18466H5.18472H5.18477H5.18483H5.18489H5.18495H5.18501H5.18506H5.18512H5.18518H5.18524H5.18529H5.18535H5.18541H5.18547H5.18552H5.18558H5.18564H5.1857H5.18575H5.18581H5.18587H5.18592H5.18598H5.18604H5.18609H5.18615H5.18621H5.18626H5.18632H5.18638H5.18643H5.18649H5.18655H5.1866H5.18666H5.18672H5.18677H5.18683H5.18688H5.18694H5.187H5.18705H5.18711H5.18716H5.18722H5.18728H5.18733H5.18739H5.18744H5.1875H5.18755H5.18761H5.18767H5.18772H5.18778H5.18783H5.18789H5.18794H5.188H5.18805H5.18811H5.18816H5.18822H5.18827H5.18833H5.18838H5.18844H5.18849H5.18855H5.1886H5.18866H5.18871H5.18877H5.18882H5.18888H5.18893H5.18899H5.18904H5.1891H5.18915H5.18921H5.18926H5.18932H5.18937H5.18943H5.18948H5.18954H5.18959H5.18964H5.1897H5.18975H5.18981H5.18986H5.18992H5.18997H5.19003H5.19008H5.19014H5.19019H5.19024H5.1903H5.19035H5.19041H5.19046H5.19052H5.19057H5.19062H5.19068H5.19073H5.19079H5.19084H5.1909H5.19095H5.191H5.19106H5.19111H5.19117H5.19122H5.19128H5.19133H5.19138H5.19144H5.19149H5.19155H5.1916H5.19166H5.19171H5.19176H5.19182H5.19187H5.19193H5.19198H5.19204H5.19209H5.19214H5.1922H5.19225H5.19231H5.19236H5.19242H5.19247H5.19253H5.19258H5.19263H5.19269H5.19274H5.1928H5.19285H5.19291H5.19296H5.19302H5.19307H5.19312H5.19318H5.19323H5.19329H5.19334H5.1934H5.19345H5.19351H5.19356H5.19362H5.19367H5.19373H5.19378H5.19384H5.19389H5.19395H5.194H5.19406H5.19411H5.19417H5.19422H5.19428H5.19433H5.19439H5.19444H5.1945H5.19455H5.19461H5.19466H5.19472H5.19477H5.19483H5.19488H5.19494H5.19499H5.19505H5.19511H5.19516H5.19522H5.19527H5.19533H5.19538H5.19544H5.1955H5.19555H5.19561H5.19566H5.19572H5.19578H5.19583H5.19589H5.19594H5.196H5.19606H5.19611H5.19617H5.19623H5.19628H5.19634H5.1964H5.19645H5.19651H5.19657H5.19662H5.19668H5.19674H5.19679H5.19685H5.19691H5.19696H5.19702H5.19708H5.19714H5.19719H5.19725H5.19731H5.19737H5.19742H5.19748H5.19754H5.1976H5.19766H5.19771H5.19777H5.19783H5.19789H5.19795H5.198H5.19806H5.19812H5.19818H5.19824H5.1983H5.19835H5.19841H5.19847H5.19853H5.19859H5.19865H5.19871H5.19877H5.19883H5.19888H5.19894H5.199H5.19906H5.19912H5.19918H5.19924H5.1993H5.19936H5.19942H5.19948H5.19954H5.1996H5.19966H5.19972H5.19978H5.19984H5.1999H5.19997H5.20003H5.20009H5.20015H5.20021H5.20027H5.20033H5.20039H5.20045H5.20052H5.20058H5.20064H5.2007H5.20076H5.20082H5.20089H5.20095H5.20101H5.20107H5.20114H5.2012H5.20126H5.20132H5.20139H5.20145H5.20151H5.20158H5.20164H5.2017H5.20177H5.20183H5.20189H5.20196H5.20202H5.20208H5.20215H5.20221H5.20228H5.20234H5.2024H5.20247H5.20253H5.2026H5.20266H5.20273H5.20279H5.20286H5.20292H5.20299H5.20305H5.20312H5.20319H5.20325H5.20332H5.20338H5.20345H5.20352H5.20358H5.20365H5.20372H5.20378H5.20385H5.20392H5.20398H5.20405H5.20412H5.20419H5.20425H5.20432H5.20439H5.20446H5.20452H5.20459H5.20466H5.20473H5.2048H5.20487H5.20494H5.205H5.20507H5.20514H5.20521H5.20528H5.20535H5.20542H5.20549H5.20556H5.20563H5.2057H5.20577H5.20584H5.20591H5.20598H5.20605H5.20613H5.2062H5.20627H5.20634H5.20641H5.20648H5.20655H5.20663H5.2067H5.20677H19.4003H19.4004H19.4005H19.4005H19.4006H19.4007H19.4008H19.4008H19.4009H19.401H19.401H19.4011H19.4012H19.4013H19.4013H19.4014H19.4015H19.4015H19.4016H19.4017H19.4018H19.4018H19.4019H19.402H19.4021H19.4021H19.4022H19.4023H19.4023H19.4024H19.4025H19.4026H19.4026H19.4027H19.4028H19.4029H19.4029H19.403H19.4031H19.4031H19.4032H19.4033H19.4034H19.4034H19.4035H19.4036H19.4036H19.4037H19.4038H19.4039H19.4039H19.404H19.4041H19.4042H19.4042H19.4043H19.4044H19.4044H19.4045H19.4046H19.4047H19.4047H19.4048H19.4049H19.405H19.405H19.4051H19.4052H19.4052H19.4053H19.4054H19.4055H19.4055H19.4056H19.4057H19.4057H19.4058H19.4059H19.406H19.406H19.4061H19.4062H19.4063H19.4063H19.4064H19.4065H19.4065H19.4066H19.4067H19.4068H19.4068H19.4069H19.407H19.407H19.4071H19.4072H19.4073H19.4073H19.4074H19.4075H19.4076H19.4076H19.4077H19.4078H19.4078H19.4079H19.408H19.4081H19.4081H19.4082H19.4083H19.4084H19.4084H19.4085H19.4086H19.4086H19.4087H19.4088H19.4089H19.4089H19.409H19.4091H19.4091H19.4092H19.4093H19.4094H19.4094H19.4095H19.4096H19.4097H19.4097H19.4098H19.4099H19.4099H19.41H19.4101H19.4102H19.4102H19.4103H19.4104H19.4105H19.4105H19.4106H19.4107H19.4107H19.4108H19.4109H19.411H19.411H19.4111H19.4112H19.4112H19.4113H19.4114H19.4115H19.4115H19.4116H19.4117H19.4118H19.4118H19.4119H19.412H19.412H19.4121H19.4122H19.4123H19.4123H19.4124H19.4125H19.4125H19.4126H19.4127H19.4128H19.4128H19.4129H19.413H19.4131H19.4131H19.4132H19.4133H19.4133H19.4134H19.4135H19.4136H19.4136H19.4137H19.4138H19.4139H19.4139H19.414H19.4141H19.4141H19.4142H19.4143H19.4144H19.4144H19.4145H19.4146H19.4146H19.4147H19.4148H19.4149H19.4149H19.415H19.4151H19.4152H19.4152H19.4153H19.4154H19.4154H19.4155H19.4156H19.4157H19.4157H19.4158H19.4159H19.416H19.416H19.4161H19.4162H19.4162H19.4163H19.4164H19.4165H19.4165H19.4166H19.4167H19.4167H19.4168H19.4169H19.417H19.417H19.4171H19.4172H19.4173H19.4173H19.4174H19.4175H19.4175H19.4176H19.4177H19.4178H19.4178H19.4179H19.418H19.4181H19.4181H19.4182H19.4183H19.4183H19.4184H19.4185H19.4186H19.4186H19.4187H19.4188H19.4188H19.4189H19.419H19.4191H19.4191H19.4192H19.4193H19.4194H19.4194H19.4195H19.4196H19.4196H19.4197H19.4198H19.4199H19.4199H19.42H19.4201H19.4202H19.4202H19.4203H19.4204H19.4204H19.4205H19.4206H19.4207H19.4207H19.4208H19.4209H19.4209H19.421H19.4211H19.4212H19.4212H19.4213H19.4214H19.4215H19.4215H19.4216H19.4217H19.4217H19.4218H19.4219H19.422H19.422H19.4221H19.4222H19.4222H19.4223H19.4224H19.4225H19.4225H19.4226H19.4227H19.4228H19.4228H19.4229H19.423H19.423H19.4231H19.4232H19.4233H19.4233H19.4234H19.4235H19.4236H19.4236H19.4237H19.4238H19.4238H19.4239H19.424H19.4241H19.4241H19.4242H19.4243H19.4243H19.4244H19.4245H19.4246H19.4246H19.4247H19.4248H19.4249H19.4249H19.425H19.4251H19.4251H19.4252H19.4253H19.4254H19.4254H19.4255H19.4256H19.4257H19.4257H19.4258H19.4259H19.4259H19.426H19.4261H19.4262H19.4262H19.4263H19.4264H19.4264H19.4265H19.4266H19.4267H19.4267H19.4268H19.4269H19.427H19.427H19.4271H19.4272H19.4272H19.4273H19.4274H19.4275H19.4275H19.4276H19.4277H19.4278H19.4278H19.4279H19.428H19.428H19.4281H19.4282H19.4283H19.4283H19.4284H19.4285H19.4285H19.4286H19.4287H19.4288H19.4288H19.4289H19.429H19.4291H19.4291H19.4292H19.4293H19.4293H19.4294H19.4295H19.4296H19.4296H19.4297H19.4298H19.4298H19.4299H19.43H19.4301H19.4301H19.4302H19.4303H19.4304H19.4304H19.4305H19.4306H19.4306H19.4307H19.4308H19.4309H19.4309H19.431H19.4311H19.4312H19.4312H19.4313H19.4314H19.4314H19.4315H19.4316H19.4317H19.4317H19.4318H19.4319H19.4319H19.432H19.4321H19.4322H19.4322H19.4323H19.4324H19.4325H19.4325H19.4326H19.4327H19.4327H19.4328H19.4329H19.433H19.433H19.4331H19.4332H19.4333H19.4333H19.4334H19.4335H19.4335H19.4336H19.4337H19.4338H19.4338H19.4339H19.434H19.434H19.4341H19.4342H19.4343H19.4343H19.4344H19.4345H19.4346H19.4346H19.4347H19.4348H19.4348H19.4349H19.435H19.4351H19.4351H19.4352H19.4353H19.4354H19.4354H19.4355H19.4356H19.4356H19.4357H19.4358H19.4359H19.4359H19.436H19.4361H19.4361H19.4362H19.4363H19.4364H19.4364H19.4365H19.4366H19.4367H19.4367H19.4368H19.4369H19.4369H19.437H19.4371H19.4372H19.4372H19.4373H19.4374V18.7721L19.4462 18.7715C21.0422 18.6579 22.5293 17.9199 23.6371 16.7051L23.6373 16.7049C24.7388 15.4901 25.3436 13.9347 25.3436 12.3159C25.3436 9.36742 23.3319 6.75037 20.5856 6.03237C20.0051 2.49241 16.9635 -0.125 13.3165 -0.125C10.6709 -0.125 8.21599 1.31104 6.91551 3.58328C6.6576 3.53225 6.39474 3.50677 6.12707 3.50677C3.90862 3.50677 2.10471 5.31068 2.10471 7.52913C2.10471 7.81881 2.13629 8.10303 2.1946 8.37702C0.750555 9.41787 -0.125 11.1111 -0.125 12.9088L-0.125 12.9091C-0.118697 15.9282 2.29932 18.6132 5.169 18.7716ZM7.04053 5.03352L7.0417 5.03395C7.3743 5.15489 7.7428 5.00335 7.90034 4.68826L7.90037 4.68828L7.90162 4.68563C8.88775 2.59238 11.0178 1.24294 13.3288 1.24294C16.4393 1.24294 19.0041 3.57212 19.3006 6.65784L19.3006 6.65803C19.3308 6.96751 19.5647 7.21645 19.8667 7.26931L19.8671 7.26938C22.2129 7.67237 23.988 9.83505 23.988 12.3097C23.988 14.9321 21.9198 17.2089 19.3832 17.4038H5.22915C3.07979 17.2702 1.2553 15.2262 1.2553 12.9088C1.2553 11.4215 2.05315 10.0236 3.34869 9.26779C3.63533 9.10173 3.76466 8.7473 3.64354 8.4357C3.53818 8.15446 3.485 7.8485 3.485 7.52913C3.485 6.0664 4.67669 4.87471 6.13942 4.87471C6.45274 4.87471 6.75896 4.92793 7.04053 5.03352Z" transform="translate(0.952759 0.772705)" fill="#27AE60" stroke="#CBCBCB" stroke-width="0.25"/>
<path d="M2.90294 7.92913L2.90216 7.92913C1.99047 7.93487 1.25529 7.19523 1.25529 6.28148C1.25529 5.37463 1.9961 4.63383 2.90294 4.63383C3.80979 4.63383 4.55059 5.37463 4.55059 6.28148C4.55059 7.18833 3.80979 7.92913 2.90294 7.92913ZM5.91854 6.28148C5.91854 4.85384 4.91863 3.65437 3.58383 3.33962V0.56206C3.58383 0.1842 3.27463 -0.125 2.89677 -0.125C2.51891 -0.125 2.20971 0.1842 2.20971 0.56206V3.33917C0.874481 3.64829 -0.125 4.84826 -0.125 6.28148C-0.125 7.94405 1.22802 9.29707 2.89059 9.29707C4.55229 9.29707 5.91854 7.95109 5.91854 6.28148Z" transform="translate(10.7178 21.8221)" fill="#27AE60" stroke="#CBCBCB" stroke-width="0.25"/>
<path d="M1.24912 0.56206C1.24912 0.184201 0.93992 -0.125 0.56206 -0.125C0.1842 -0.125 -0.125 0.1842 -0.125 0.56206C-0.125 0.939919 0.1842 1.24912 0.56206 1.24912C0.939022 1.24912 1.24912 0.94699 1.24912 0.56206Z" transform="translate(8.7475 27.5416)" fill="#27AE60" stroke="#CBCBCB" stroke-width="0.25"/>
<path d="M1.24912 0.56206C1.24912 0.185098 0.94699 -0.125 0.562059 -0.125C0.1842 -0.125 -0.125 0.1842 -0.125 0.56206C-0.125 0.939919 0.1842 1.24912 0.562059 1.24912C0.939021 1.24912 1.24912 0.94699 1.24912 0.56206Z" transform="translate(4.80072 27.5416)" fill="#27AE60" stroke="#CBCBCB" stroke-width="0.25"/>
<path d="M0.562059 -0.125V-0.125025L0.559559 -0.124975C0.18593 -0.117502 -0.125 0.181977 -0.125 0.56206C-0.125 0.939919 0.184199 1.24912 0.562059 1.24912C0.939021 1.24912 1.24912 0.94699 1.24912 0.56206C1.24912 0.185098 0.946989 -0.125 0.562059 -0.125Z" transform="translate(6.77722 27.5416)" fill="#27AE60" stroke="#CBCBCB" stroke-width="0.25"/>
<path d="M0.0695633 1.04302L0.0695216 1.04306L0.0722 1.04574C0.199427 1.17297 0.372816 1.24912 0.555883 1.24912C0.73895 1.24912 0.912339 1.17297 1.03957 1.04574C1.16679 0.918515 1.24294 0.745126 1.24294 0.56206C1.24294 0.378993 1.16679 0.205605 1.03957 0.0783773C0.912339 -0.04885 0.73895 -0.125 0.555883 -0.125V-0.125118L0.550453 -0.124882C0.38197 -0.117557 0.202504 -0.0519266 0.0722 0.0783773C-0.0575288 0.208106 -0.125 0.382537 -0.125 0.56206C-0.125 0.744739 -0.0492326 0.916804 0.0695633 1.04302Z" transform="translate(2.83044 27.5416)" fill="#27AE60" stroke="#CBCBCB" stroke-width="0.25"/>
<path d="M1.04574 1.04574C1.17297 0.918514 1.24912 0.745126 1.24912 0.56206C1.24912 0.378994 1.17297 0.205605 1.04574 0.0783773C0.918515 -0.0488499 0.745127 -0.125 0.56206 -0.125C0.378993 -0.125 0.205603 -0.0488502 0.0783754 0.0783773C-0.0488525 0.205605 -0.125 0.378994 -0.125 0.56206C-0.125 0.745126 -0.0488525 0.918514 0.0783754 1.04574C0.205603 1.17297 0.378993 1.24912 0.56206 1.24912C0.745127 1.24912 0.918515 1.17297 1.04574 1.04574Z" transform="translate(23.2869 27.5416)" fill="#27AE60" stroke="#CBCBCB" stroke-width="0.25"/>
<path d="M1.24912 0.56206C1.24912 0.185099 0.946991 -0.125 0.56206 -0.125C0.1842 -0.125 -0.125 0.1842 -0.125 0.56206C-0.125 0.939919 0.1842 1.24912 0.56206 1.24912C0.939022 1.24912 1.24912 0.94699 1.24912 0.56206Z" transform="translate(21.3105 27.5416)" fill="#27AE60" stroke="#CBCBCB" stroke-width="0.25"/>
<path d="M0.562058 1.24912C0.93902 1.24912 1.24912 0.94699 1.24912 0.56206C1.24912 0.185098 0.946988 -0.125 0.562058 -0.125C0.184198 -0.125 -0.125 0.184201 -0.125 0.56206C-0.125 0.94699 0.185096 1.24912 0.562058 1.24912Z" transform="translate(19.3401 27.5416)" fill="#27AE60" stroke="#CBCBCB" stroke-width="0.25"/>
<path d="M1.24294 0.56206C1.24294 0.185098 0.940813 -0.125 0.555883 -0.125C0.176231 -0.125 -0.125 0.186007 -0.125 0.56206C-0.125 0.938113 0.176231 1.24912 0.555883 1.24912C0.932845 1.24912 1.24294 0.94699 1.24294 0.56206Z" transform="translate(17.3698 27.5416)" fill="#27AE60" stroke="#CBCBCB" stroke-width="0.25"/>
</svg>
