<svg width="24" height="25" viewBox="0 0 24 25" fill="none" xmlns="http://www.w3.org/2000/svg">
<path d="M2.32049 0.0699474L0.41345 0L0 11.2907L1.90704 11.3604L2.32049 0.0699474Z" transform="translate(14.0839 8.39307)" fill="#BDBDBD" fill-opacity="0.7"/>
<path d="M1.90828 0H0V11.2908H1.90828V0Z" transform="translate(10.8073 8.42804)" fill="#BDBDBD" fill-opacity="0.7"/>
<path d="M2.32049 11.2908L1.90704 0L0 0.0699953L0.413498 11.3607L2.32049 11.2908Z" transform="translate(7.11823 8.39273)" fill="#BDBDBD" fill-opacity="0.7"/>
<path d="M0 0V1.90828H1.98846L3.56593 19.8345C3.60919 20.3272 4.02173 20.705 4.51627 20.705H18.1603C18.6549 20.705 19.0677 20.3269 19.1106 19.8342L20.6881 1.90828H22.7087V0H0ZM17.2863 18.7968H5.38999L3.90406 1.90828H18.7726L17.2863 18.7968Z" transform="translate(0.407104 3.72092)" fill="#BDBDBD" fill-opacity="0.7"/>
<path d="M7.82401 0H1.59023C0.713368 0 0 0.713368 0 1.59023V4.61172H1.90828V1.90828H7.50597V4.61172H9.41425V1.59023C9.41425 0.713368 8.70088 0 7.82401 0Z" transform="translate(7.05435 0.0633545)" fill="#BDBDBD" fill-opacity="0.7"/>
</svg>
